# xmcd
#
# Track frame offsets:
#	150
#	9205
#	25296
#	38669
#	56278
#	67692
#	77649
#	97660
#	110222
#	125790
#	141748
#	154055
#	170076
#	182225
#
# Disc length: 2638 seconds
#
# Revision: 0
# Processed by: cddbd v1.5.2PL0 Copyright (c) Steve Scherf et al.
# Submitted via: EasyCDDAExtractor 12.0.2.1
#
DISCID=b50a4c0e
DTITLE=Betty Jean - More Sentimental Country
DYEAR=2009
DGENRE=Country
TTITLE0=Take These Chains
TTITLE1=Barbara's Daughter
TTITLE2=Rose Garden
TTITLE3=I Love You More
TTITLE4=Are You On The Road Again
TTITLE5=If Teardrops Were Pennies
TTITLE6=Me And Bobby McGee
TTITLE7=Banks Of The Ohio
TTITLE8=Love Is No Crime
TTITLE9=Don't Fly To High
TTITLE10=Do Me With Love
TTITLE11=Do You Wanna Make Love
TTITLE12=I Don't Wanna Play House
TTITLE13=Take Me Back
EXTD=
EXTT0=
EXTT1=
EXTT2=
EXTT3=
EXTT4=
EXTT5=
EXTT6=
EXTT7=
EXTT8=
EXTT9=
EXTT10=
EXTT11=
EXTT12=
EXTT13=
PLAYORDER=
